<svg id="Layer_1" xmlns="http://www.w3.org/2000/svg" viewBox="0 0 500 241.5"><style>.st0{fill-rule:evenodd;clip-rule:evenodd;fill:#005CAA;} .st1{fill:#FFE01B;} .st2{fill:#98BEE5;} .st3{fill:#005CAA;} .st4{fill:#EC1C2E;} .st5{fill:#FFFFFF;}</style><path class="st0" d="M460.2 241.5c2.9 0 5.4-2.3 5.4-5.4 0-3.1-2.5-5.3-5.4-5.3-2.9 0-5.4 2.3-5.4 5.3 0 3.2 2.5 5.4 5.4 5.4zm-4.4-5.4c0-2.5 1.9-4.5 4.4-4.5 2.4 0 4.3 1.9 4.3 4.5s-1.9 4.5-4.3 4.5-4.4-1.9-4.4-4.5zm3.3.5h1.1l1.6 2.7h1l-1.8-2.7c.9-.1 1.6-.6 1.6-1.7 0-1.2-.7-1.8-2.2-1.8H458v6.2h.9v-2.7zm0-.8v-1.9h1.3c.7 0 1.3.1 1.3.9 0 1-.7 1-1.5 1h-1.1z"/><path id="XMLID_76_" class="st1" d="M424.5 122.1c-7.5-14 .1-25.5 9.4-35.9l51.8-57.5c9.1-10.1 10.4-13.5 9.5-16.3-.3-1.1-1.4-2.6-4.5-3.4-3.3-.9-11.8-.6-21 .7-8.2 1.2-29.5 5-34.9 6L51.1 91c-12 2.4-18.1 9.2-18.2 20.4 0 15.6 12.9 21.6 23.8 23.8 23 4.7 374.3 77.8 377.9 78.6 21.7 4.9 26.6 1.9 30-1.9 2.5-2.7 3.4-8.5.4-14.1 0-.1-40.5-75.7-40.5-75.7z"/><path id="XMLID_75_" class="st2" d="M250 42.5L67 6.6C61.4 5.5 40.3 1.8 31.6.8 26.7.2 15.1-.8 8.7 1.2 2.5 3.1.3 6.8 0 13c.2-4.6 3.6-7.2 8.1-8.5 5.1-1.4 15.9-.4 22.9.6 8.5 1.2 29.8 5 35.1 6.1 3.6.7 84.9 16.7 171.8 33.7l12.1-2.4z"/><path id="XMLID_74_" class="st2" d="M128.7 159.7c-26.7 9.3-62.3 21.8-72.2 25.2-21 7.3-30.5 1.4-29.6-9.4-.8 5.5-.8 10.5 2.5 13.6 4.1 3.9 11.1 6.3 28.6.2 0 0 49-17.1 79.5-27.8-2.9-.6-5.9-1.2-8.8-1.8z"/><path id="XMLID_73_" class="st2" d="M55 180.5c-10.1 3.5-18.2 4-21.6 1.1-1.6-1.4-2.2-3.7-1.7-6.9.8-4.7 3.7-8.6 8.8-14.2 0 0 7.1-7.7 14.8-16.1 6.3 1.3 30.9 6.4 64.7 13.4l-65 22.7z"/><path id="XMLID_72_" class="st2" d="M14.4 28.8C5.3 18.7 4 15.3 4.8 12.4c.4-1 1.4-2.5 4.5-3.4 3.3-.9 11.8-.6 21 .7 8.2 1.2 29.5 5 34.9 6l160.6 31.5L60.3 79.7 14.4 28.8z"/><path class="st1" d="M491.3 1.2c-6.5-2-18.1-1-22.9-.4-8.7 1.1-29.8 4.7-35.4 5.8L238 44.9c-86.8-17-168.1-33-171.8-33.7-5.3-1-26.6-4.9-35.1-6.1-7-1-17.8-2-22.9-.6C3.6 5.7.2 8.3 0 13c-.2 5 1.9 8.9 10.9 18.9 0 0 29 32.2 44.1 48.9l-5.7 1.1c-16.2 3.2-25.6 14-25.7 29.5 0 8.1 2.6 15.4 7.8 20.9 4.5 4.9 10.7 8.5 18.6 10.8-6.3 6.9-11.9 13-13 14.2-4.8 5.2-8.5 9.7-9.7 15.5v.2c-.1.8-.3 1.6-.4 2.4-.9 10.9 8.6 16.8 29.6 9.4 9.9-3.5 45.5-15.9 72.2-25.2 109.5 22.8 300.6 62.5 303.9 63.2h-.1.1c19 4.3 30.3 2.9 36.1-3.2 4.6-4.9 5.5-10.9 3.1-17.9-.2-.7-.8-1.9-1.5-3.6 2.5 6.7 1 13.3-2.2 16.8-5.2 5.8-12.4 8.4-34.5 3.3 0 0-354.6-73.8-377.9-78.6-19.1-3.9-27.5-14.7-27.4-28.3.1-13.2 7.5-22.2 21.9-25 0 0 375.7-73.7 383.6-75.3 5.3-1 26.6-4.9 35.1-6.1 7-1 17.8-2 22.9-.6 4.5 1.2 7.9 3.8 8.1 8.5-.2-6-2.4-9.7-8.6-11.6zM55 180.5c-10.1 3.5-18.2 4-21.6 1.1-1.6-1.4-2.2-3.7-1.7-6.9.8-4.7 3.7-8.6 8.8-14.2 0 0 7.1-7.7 14.8-16.1 6.3 1.3 30.9 6.4 64.7 13.4l-65 22.7zM14.4 28.8C5.3 18.7 4 15.3 4.8 12.4c.4-1 1.4-2.5 4.5-3.4 3.3-.9 11.8-.6 21 .7 8.2 1.2 29.5 5 34.9 6l160.6 31.5L60.3 79.7 14.4 28.8z"/><path class="st3" d="M424.5 122.1c-7.5-14 .1-25.5 9.4-35.9l51.8-57.5c9.1-10.1 10.4-13.5 9.5-16.3-.3-1.1-1.4-2.6-4.5-3.4-3.3-.9-11.8-.6-21 .7-8.2 1.2-29.5 5-34.9 6L51.1 91c-12 2.4-18.1 9.2-18.2 20.4 0 15.6 12.9 21.6 23.8 23.8 23 4.7 374.3 77.8 377.9 78.6 21.7 4.9 26.6 1.9 30-1.9 2.5-2.7 3.4-8.5.4-14.1 0-.1-40.5-75.7-40.5-75.7zm44.6 73.4c.1.1.1.2.2.3.4.8.7 1.6 1 2.3 2.5 6.7 1 13.3-2.2 16.8-5.2 5.8-12.4 8.4-34.5 3.3 0 0-354.6-73.8-377.9-78.6-19.1-3.9-27.5-14.7-27.4-28.3.1-13.2 7.5-22.2 21.9-25 0 0 375.7-73.7 383.6-75.3 5.3-1 26.6-4.9 35.1-6.1 7-1 17.8-2 22.9-.6 4.5 1.2 7.9 3.8 8.1 8.5.2 5-1.9 8.9-10.9 18.9 0 0-44.2 49-51.8 57.5-10 11.1-14.5 19.9-8.8 30.6l40.7 75.7z"/><path class="st3" d="M354.2 157.3h-23.3l13.8-87.2H368l-13.8 87.2zM240.8 70h22.7l31.4 53.3h.5l8.2-53.3h22.7l-13.8 87.2h-22.7L259 103.7h-.5l-8.9 53.4h-22.7L240.8 70zM101.9 89.6c-2.6-2-7.4-4.8-14.8-4.8-5 0-9 2.5-9.8 6.6-1.1 6.3 4.9 8.6 9.5 10.5 4.6 1.9 7.1 3.2 9.9 4.9 9.9 6 15.9 16.9 11.8 31.3-3.1 10.8-12.9 21.9-37.1 21.9-15.8 0-27-6.2-32.7-10.9l12.4-18c5 5 13.2 9.8 21.5 9.8 5.9 0 11.9-1.6 13.2-7.3 1.6-6.8-6.6-9.4-12.8-12.1-14.2-6.1-22-16.2-19-31C56.7 77 69.5 67.1 88 67.1c11.1 0 19.7 3.3 24.2 5.6 0 .1-9.6 17.5-10.3 16.9zM219.4 113.6c-4.4 28.9-27.9 46.5-56 46.5-29.8 0-44.3-22.3-41.2-46.5 3.2-25.6 26.2-46.5 56-46.5 31.2 0 44.6 24.5 41.2 46.5zm-73.2 0c-2.7 15 6.4 25.5 20.5 25.5 13.4 0 25.6-9.5 28.6-25.5 2.4-13-4.6-25.3-20.9-25.3-15.2-.1-25.8 12.1-28.2 25.3zM446.6 97.2c-3.5-3.9-9.4-7.9-18.9-7.8-13 0-25.3 11.1-27.4 24.5-2.2 13.4 4.7 24 20.1 24 9.3 0 16.6-3.9 21-7.6l-4.2 26.4c-4.5 1.1-11.4 3.4-20.8 3.4-33 0-44-24.7-40.9-46.3 3.8-26.4 25.1-46.6 53.6-46.6 9.6 0 17.3 2.5 21.7 4l-4.2 26z"/><path class="st4" d="M359.3 152.8H336l13.8-87.2h23.3l-13.8 87.2z"/><path class="st5" d="M359.7 153.3h-24.4l.1-.6 13.9-87.6h24.4l-.1.6-13.9 87.6zm-23.2-1h22.3l13.6-86.1h-22.3l-13.6 86.1z"/><path class="st4" d="M245.8 65.5h22.7l31.4 53.3h.5l8.2-53.3h22.7l-13.8 87.2h-22.7l-30.7-53.4h-.5l-8.9 53.4H232l13.8-87.2z"/><path class="st5" d="M317.8 153.2h-23.4l-30.5-53-8.8 53h-23.7l14-88.2h23.4l.2.3 31 52.7 8.1-52.9h23.7l-.1.6-13.9 87.5zm-22.8-1.1h21.9L330.6 66H309l-8.2 53.3h-1.2l-.2-.3-31.2-53h-21.9l-13.6 86.1h21.6l8.9-53.4h1.2l30.6 53.4z"/><path class="st4" d="M108.5 86.5c-1.8-1.8-7.1-6.2-16.4-6.2-5 0-9 2.5-9.8 6.6-1.1 6.3 4.9 8.6 9.5 10.5 4.6 1.9 7.1 3.2 9.9 4.9 9.9 6 15.9 16.9 11.8 31.3-3.1 10.8-12.9 21.9-37.1 21.9-15.8 0-27-6.2-30.8-9.3l12.4-18c3.2 3.4 11.3 8.2 19.6 8.2 5.9 0 11.9-1.6 13.2-7.3 1.6-6.8-6.6-9.4-12.8-12.1-14.2-6.1-22-16.2-19-31 2.7-13.5 15.5-23.4 34-23.4 13.8 0 23.6 5.1 26.7 7.1l-11.2 16.8z"/><path class="st5" d="M76.5 156.1c-15.3 0-26.8-5.9-31.2-9.4l-.4-.3 13-18.9.4.5c3.1 3.3 11.1 8 19.2 8 9.2 0 12-3.7 12.7-6.9 1.3-5.8-4.8-8.3-10.7-10.7-.6-.3-1.2-.5-1.8-.8-15.3-6.6-22-17.5-19.1-31.6 1.4-6.9 5.3-12.8 11.3-17.1 6.2-4.4 14.2-6.8 23.2-6.8 15.1 0 25.2 6 27 7.2l.4.3-11.9 17.7-.4-.4c-2.3-2.3-7.5-6-16-6-4.9 0-8.6 2.5-9.2 6.2-1 5.6 4.1 7.8 8.6 9.7l.6.2c4.4 1.9 7 3.2 10 5 11.3 6.8 15.8 18.7 12 31.9-1.8 6.3-5.5 11.5-10.8 15.2-6.7 4.7-15.7 7-26.9 7zm-30.1-9.9c4.5 3.4 15.5 8.9 30.1 8.9 11.4 0 31.2-2.8 36.6-21.5 3.7-12.9-.5-24.1-11.6-30.7-2.9-1.8-5.5-3-9.9-4.9l-.6-.2c-4.6-2-10.3-4.4-9.2-10.8.7-4.2 4.9-7.1 10.3-7.1 8.3 0 13.6 3.5 16.2 5.9L118.9 70c-2.6-1.6-12.1-6.7-26-6.7-17.5 0-30.6 9-33.5 23-2.8 13.7 3.5 24 18.7 30.4.6.3 1.2.5 1.8.8 6 2.5 12.8 5.3 11.3 11.9-1.1 4.9-6 7.7-13.7 7.7-8.1 0-16-4.5-19.5-7.9l-11.6 17z"/><g><path class="st4" d="M224.5 109.1c-4.4 28.9-27.9 46.5-56 46.5-29.8 0-44.3-22.3-41.2-46.5 3.2-25.6 26.2-46.5 56-46.5 31.2.1 44.6 24.5 41.2 46.5zm-73.9 0c-2.7 15 6.4 25.5 20.5 25.5 13.4 0 25.6-9.5 28.6-25.5 2.4-13-4.6-25.3-20.9-25.3-15.1-.1-25.8 12.2-28.2 25.3z"/><path class="st5" d="M168.5 156.1c-13.5 0-24.7-4.6-32.3-13.2-7.6-8.6-11-21-9.4-33.9 1.6-12.7 8.1-24.5 18.2-33.2 10.4-8.9 24-13.8 38.3-13.8 13.8 0 25.1 4.7 32.8 13.7 7.6 8.9 10.9 21 9 33.4-4.4 28.2-27.1 47-56.6 47zm14.7-92.9c-14 0-27.4 4.8-37.6 13.5-10 8.5-16.3 20-17.9 32.5-1.6 12.6 1.8 24.7 9.2 33.1 7.4 8.4 18.3 12.8 31.6 12.8 28.9 0 51.2-18.5 55.5-46l.5.1-.5-.1c1.9-12.1-1.3-23.9-8.7-32.6-7.5-8.7-18.6-13.3-32.1-13.3zm-12.1 71.9c-7 0-12.9-2.5-16.8-7.2-4-4.8-5.5-11.5-4.2-18.9 2.3-12.8 12.9-25.8 28.7-25.8h.1c7.4 0 13.3 2.6 17.2 7.3 3.9 4.8 5.5 11.6 4.1 18.7-2.9 15.4-14.6 25.8-29.1 25.9zm-20-25.9c-1.3 7.1.1 13.5 3.9 18 3.7 4.4 9.4 6.8 16 6.8h.1c14-.1 25.3-10.1 28.1-25 1.3-6.8-.2-13.3-3.9-17.8-3.7-4.5-9.4-6.9-16.4-6.9h-.1c-15.2 0-25.4 12.5-27.7 24.9z"/></g><g><path class="st4" d="M451.6 92.8c-3.5-3.9-9.4-7.9-18.9-7.8-13 0-25.3 11.1-27.4 24.5-2.2 13.4 4.7 24 20.1 24 9.3 0 16.6-3.9 21-7.6l-4.2 26.4c-4.5 1.1-11.4 3.4-20.8 3.4-33 0-44-24.7-40.9-46.3 3.8-26.4 25.1-46.6 53.6-46.6 9.6 0 17.3 2.5 21.7 4l-4.2 26z"/><path class="st5" d="M421.3 156.1c-13.9 0-25.2-4.5-32.6-13-7.5-8.6-10.7-21-8.8-33.9 1.9-13.1 8.2-25 17.7-33.5 9.9-8.9 22.5-13.6 36.4-13.6 9.1 0 16.4 2.2 21.8 4.1l.4.1-4.2 27.6-.7-.8c-3.1-3.5-8.9-7.7-18.5-7.7-12.7 0-24.8 10.8-26.9 24-1.1 6.9.2 13 3.8 17.2 3.5 4.1 8.9 6.2 15.8 6.2 10.3 0 17.3-4.7 20.7-7.4l1.1-.9-4.5 28.1-.3.1c-.6.2-1.3.3-2 .5-4.8 1.3-11 2.9-19.2 2.9.1 0 .1 0 0 0zm12.8-92.9c-13.6 0-26 4.6-35.7 13.3-9.3 8.3-15.5 20-17.4 32.9-1.8 12.7 1.3 24.7 8.5 33.1 7.2 8.3 18.1 12.6 31.8 12.6h.1c8 0 14.1-1.6 18.6-2.8.6-.2 1.2-.3 1.7-.5l4-24.7c-3.8 2.9-10.7 6.8-20.3 6.8-7.1 0-12.9-2.3-16.6-6.6-3.8-4.4-5.2-10.8-4-18 2.2-13.7 14.8-24.9 27.9-24.9 9.3 0 15.1 3.8 18.5 7.2l3.9-24.6c-5.2-1.8-12.3-3.8-21-3.8z"/></g></svg>