<?xml version="1.0" encoding="utf-8"?>
<!-- Generator: Adobe Illustrator 19.2.1, SVG Export Plug-In . SVG Version: 6.00 Build 0)  -->
<svg version="1.1" id="Layer_1" xmlns="http://www.w3.org/2000/svg" xmlns:xlink="http://www.w3.org/1999/xlink" x="0px" y="0px"
	 viewBox="0 0 500 241.5" style="enable-background:new 0 0 500 241.5;" xml:space="preserve">
<style type="text/css">
	.st0{fill-rule:evenodd;clip-rule:evenodd;fill:#005CAA;}
	.st1{fill:#FFE01B;}
	.st2{fill:#98BEE5;}
	.st3{fill:#005CAA;}
	.st4{fill:#EC1C2E;}
	.st5{fill:#FFFFFF;}
</style>
<g>
	<path class="st0" d="M460.2,241.5c2.9,0,5.4-2.3,5.4-5.4c0-3.1-2.5-5.3-5.4-5.3c-2.9,0-5.4,2.3-5.4,5.3
		C454.8,239.3,457.3,241.5,460.2,241.5z M455.8,236.1c0-2.5,1.9-4.5,4.4-4.5c2.4,0,4.3,1.9,4.3,4.5c0,2.6-1.9,4.5-4.3,4.5
		C457.8,240.6,455.8,238.7,455.8,236.1z M459.1,236.6h1.1l1.6,2.7h1l-1.8-2.7c0.9-0.1,1.6-0.6,1.6-1.7c0-1.2-0.7-1.8-2.2-1.8h-2.4
		v6.2h0.9V236.6z M459.1,235.8v-1.9h1.3c0.7,0,1.3,0.1,1.3,0.9c0,1-0.7,1-1.5,1H459.1z"/>
	<g>
		<g>
			<path id="XMLID_76_" class="st1" d="M424.5,122.1c-7.5-14,0.1-25.5,9.4-35.9l51.8-57.5c9.1-10.1,10.4-13.5,9.5-16.3
				c-0.3-1.1-1.4-2.6-4.5-3.4c-3.3-0.9-11.8-0.6-21,0.7c-8.2,1.2-29.5,5-34.9,6L51.1,91c-12,2.4-18.1,9.2-18.2,20.4
				C32.9,127,45.8,133,56.7,135.2c23,4.7,374.3,77.8,377.9,78.6l0,0l0,0c21.7,4.9,26.6,1.9,30-1.9c2.5-2.7,3.4-8.5,0.4-14.1
				C465,197.7,424.5,122.1,424.5,122.1z"/>
			<path id="XMLID_75_" class="st2" d="M250,42.5L67,6.6c-5.6-1.1-26.7-4.8-35.4-5.8C26.7,0.2,15.1-0.8,8.7,1.2
				C2.5,3.1,0.3,6.8,0,13c0.2-4.6,3.6-7.2,8.1-8.5C13.2,3.1,24,4.1,31,5.1c8.5,1.2,29.8,5,35.1,6.1c3.6,0.7,84.9,16.7,171.8,33.7
				L250,42.5z"/>
			<path id="XMLID_74_" class="st2" d="M128.7,159.7c-26.7,9.3-62.3,21.8-72.2,25.2c-21,7.3-30.5,1.4-29.6-9.4
				c-0.8,5.5-0.8,10.5,2.5,13.6c4.1,3.9,11.1,6.3,28.6,0.2c0,0,49-17.1,79.5-27.8C134.6,160.9,131.6,160.3,128.7,159.7z"/>
			<path id="XMLID_73_" class="st2" d="M55,180.5c-10.1,3.5-18.2,4-21.6,1.1c-1.6-1.4-2.2-3.7-1.7-6.9c0.8-4.7,3.7-8.6,8.8-14.2
				c0,0,7.1-7.7,14.8-16.1c6.3,1.3,30.9,6.4,64.7,13.4L55,180.5z"/>
			<path id="XMLID_72_" class="st2" d="M14.4,28.8C5.3,18.7,4,15.3,4.8,12.4C5.2,11.4,6.2,9.9,9.3,9c3.3-0.9,11.8-0.6,21,0.7
				c8.2,1.2,29.5,5,34.9,6l160.6,31.5L60.3,79.7L14.4,28.8z"/>
			<path class="st1" d="M491.3,1.2c-6.5-2-18.1-1-22.9-0.4c-8.7,1.1-29.8,4.7-35.4,5.8l-195,38.3c-86.8-17-168.1-33-171.8-33.7
				c-5.3-1-26.6-4.9-35.1-6.1c-7-1-17.8-2-22.9-0.6C3.6,5.7,0.2,8.3,0,13c-0.2,5,1.9,8.9,10.9,18.9c0,0,29,32.2,44.1,48.9l-5.7,1.1
				c-16.2,3.2-25.6,14-25.7,29.5c0,8.1,2.6,15.4,7.8,20.9c4.5,4.9,10.7,8.5,18.6,10.8c-6.3,6.9-11.9,13-13,14.2
				c-4.8,5.2-8.5,9.7-9.7,15.5c0,0.1,0,0.1,0,0.2c-0.1,0.8-0.3,1.6-0.4,2.4c-0.9,10.9,8.6,16.8,29.6,9.4
				c9.9-3.5,45.5-15.9,72.2-25.2c109.5,22.8,300.6,62.5,303.9,63.2c0,0,0,0-0.1,0l0.1,0c0,0,0,0,0,0c19,4.3,30.3,2.9,36.1-3.2
				c4.6-4.9,5.5-10.9,3.1-17.9c-0.2-0.7-0.8-1.9-1.5-3.6c2.5,6.7,1,13.3-2.2,16.8c-5.2,5.8-12.4,8.4-34.5,3.3
				c0,0-354.6-73.8-377.9-78.6c-19.1-3.9-27.5-14.7-27.4-28.3c0.1-13.2,7.5-22.2,21.9-25c0,0,375.7-73.7,383.6-75.3
				c5.3-1,26.6-4.9,35.1-6.1c7-1,17.8-2,22.9-0.6c4.5,1.2,7.9,3.8,8.1,8.5C499.7,6.8,497.5,3.1,491.3,1.2z M55,180.5
				c-10.1,3.5-18.2,4-21.6,1.1c-1.6-1.4-2.2-3.7-1.7-6.9c0.8-4.7,3.7-8.6,8.8-14.2c0,0,7.1-7.7,14.8-16.1
				c6.3,1.3,30.9,6.4,64.7,13.4L55,180.5z M14.4,28.8C5.3,18.7,4,15.3,4.8,12.4C5.2,11.4,6.2,9.9,9.3,9c3.3-0.9,11.8-0.6,21,0.7
				c8.2,1.2,29.5,5,34.9,6l160.6,31.5L60.3,79.7L14.4,28.8z"/>
			<path class="st3" d="M424.5,122.1c-7.5-14,0.1-25.5,9.4-35.9l51.8-57.5c9.1-10.1,10.4-13.5,9.5-16.3c-0.3-1.1-1.4-2.6-4.5-3.4
				c-3.3-0.9-11.8-0.6-21,0.7c-8.2,1.2-29.5,5-34.9,6L51.1,91c-12,2.4-18.1,9.2-18.2,20.4C32.9,127,45.8,133,56.7,135.2
				c23,4.7,374.3,77.8,377.9,78.6l0,0l0,0c21.7,4.9,26.6,1.9,30-1.9c2.5-2.7,3.4-8.5,0.4-14.1C465,197.7,424.5,122.1,424.5,122.1z
				 M469.1,195.5c0.1,0.1,0.1,0.2,0.2,0.3c0.4,0.8,0.7,1.6,1,2.3c2.5,6.7,1,13.3-2.2,16.8c-5.2,5.8-12.4,8.4-34.5,3.3
				c0,0-354.6-73.8-377.9-78.6c-19.1-3.9-27.5-14.7-27.4-28.3c0.1-13.2,7.5-22.2,21.9-25c0,0,375.7-73.7,383.6-75.3
				c5.3-1,26.6-4.9,35.1-6.1c7-1,17.8-2,22.9-0.6c4.5,1.2,7.9,3.8,8.1,8.5c0.2,5-1.9,8.9-10.9,18.9c0,0-44.2,49-51.8,57.5
				c-10,11.1-14.5,19.9-8.8,30.6L469.1,195.5z"/>
			<path class="st3" d="M354.2,157.3h-23.3l13.8-87.2H368L354.2,157.3z"/>
			<path class="st3" d="M240.8,70h22.7l31.4,53.3h0.5l8.2-53.3h22.7l-13.8,87.2h-22.7L259,103.7h-0.5l-8.9,53.4h-22.7L240.8,70z"/>
			<path class="st3" d="M101.9,89.6c-2.6-2-7.4-4.8-14.8-4.8c-5,0-9,2.5-9.8,6.6c-1.1,6.3,4.9,8.6,9.5,10.5c4.6,1.9,7.1,3.2,9.9,4.9
				c9.9,6,15.9,16.9,11.8,31.3c-3.1,10.8-12.9,21.9-37.1,21.9c-15.8,0-27-6.2-32.7-10.9l12.4-18c5,5,13.2,9.8,21.5,9.8
				c5.9,0,11.9-1.6,13.2-7.3c1.6-6.8-6.6-9.4-12.8-12.1c-14.2-6.1-22-16.2-19-31c2.7-13.5,15.5-23.4,34-23.4
				c11.1,0,19.7,3.3,24.2,5.6C112.2,72.8,102.6,90.2,101.9,89.6z"/>
			<path class="st3" d="M219.4,113.6c-4.4,28.9-27.9,46.5-56,46.5c-29.8,0-44.3-22.3-41.2-46.5c3.2-25.6,26.2-46.5,56-46.5
				C209.4,67.1,222.8,91.6,219.4,113.6z M146.2,113.6c-2.7,15,6.4,25.5,20.5,25.5c13.4,0,25.6-9.5,28.6-25.5
				c2.4-13-4.6-25.3-20.9-25.3C159.2,88.2,148.6,100.4,146.2,113.6z"/>
			<path class="st3" d="M446.6,97.2c-3.5-3.9-9.4-7.9-18.9-7.8c-13,0-25.3,11.1-27.4,24.5c-2.2,13.4,4.7,24,20.1,24
				c9.3,0,16.6-3.9,21-7.6l-4.2,26.4c-4.5,1.1-11.4,3.4-20.8,3.4c-33,0-44-24.7-40.9-46.3c3.8-26.4,25.1-46.6,53.6-46.6
				c9.6,0,17.3,2.5,21.7,4L446.6,97.2z"/>
			<g>
				<path class="st4" d="M359.3,152.8h-23.3l13.8-87.2h23.3L359.3,152.8z"/>
				<path class="st5" d="M359.7,153.3h-24.4l0.1-0.6l13.9-87.6h24.4l-0.1,0.6L359.7,153.3z M336.5,152.3h22.3l13.6-86.1h-22.3
					L336.5,152.3z"/>
			</g>
			<g>
				<path class="st4" d="M245.8,65.5h22.7l31.4,53.3h0.5l8.2-53.3h22.7l-13.8,87.2h-22.7l-30.7-53.4h-0.5l-8.9,53.4H232L245.8,65.5z
					"/>
				<path class="st5" d="M317.8,153.2h-23.4l-30.5-53l-8.8,53h-23.7l14-88.2h23.4l0.2,0.3l31,52.7l8.1-52.9h23.7l-0.1,0.6
					L317.8,153.2z M295,152.1h21.9L330.6,66H309l-8.2,53.3h-1.2l-0.2-0.3l-31.2-53h-21.9l-13.6,86.1h21.6l8.9-53.4h1.2L295,152.1z"
					/>
			</g>
			<g>
				<path class="st4" d="M108.5,86.5c-1.8-1.8-7.1-6.2-16.4-6.2c-5,0-9,2.5-9.8,6.6c-1.1,6.3,4.9,8.6,9.5,10.5
					c4.6,1.9,7.1,3.2,9.9,4.9c9.9,6,15.9,16.9,11.8,31.3c-3.1,10.8-12.9,21.9-37.1,21.9c-15.8,0-27-6.2-30.8-9.3l12.4-18
					c3.2,3.4,11.3,8.2,19.6,8.2c5.9,0,11.9-1.6,13.2-7.3c1.6-6.8-6.6-9.4-12.8-12.1c-14.2-6.1-22-16.2-19-31
					c2.7-13.5,15.5-23.4,34-23.4c13.8,0,23.6,5.1,26.7,7.1L108.5,86.5z"/>
				<path class="st5" d="M76.5,156.1C76.5,156.1,76.5,156.1,76.5,156.1c-15.3,0-26.8-5.9-31.2-9.4l-0.4-0.3l13-18.9l0.4,0.5
					c3.1,3.3,11.1,8,19.2,8c0,0,0,0,0,0c9.2,0,12-3.7,12.7-6.9c1.3-5.8-4.8-8.3-10.7-10.7c-0.6-0.3-1.2-0.5-1.8-0.8
					C62.4,111,55.7,100.1,58.6,86c1.4-6.9,5.3-12.8,11.3-17.1c6.2-4.4,14.2-6.8,23.2-6.8c0,0,0,0,0,0c15.1,0,25.2,6,27,7.2l0.4,0.3
					l-11.9,17.7l-0.4-0.4c-2.3-2.3-7.5-6-16-6c0,0,0,0,0,0c-4.9,0-8.6,2.5-9.2,6.2c-1,5.6,4.1,7.8,8.6,9.7l0.6,0.2
					c4.4,1.9,7,3.2,10,5c11.3,6.8,15.8,18.7,12,31.9c-1.8,6.3-5.5,11.5-10.8,15.2C96.7,153.8,87.7,156.1,76.5,156.1z M46.4,146.2
					c4.5,3.4,15.5,8.9,30.1,8.9h0c11.4,0,31.2-2.8,36.6-21.5c3.7-12.9-0.5-24.1-11.6-30.7c-2.9-1.8-5.5-3-9.9-4.9l-0.6-0.2
					c-4.6-2-10.3-4.4-9.2-10.8c0.7-4.2,4.9-7.1,10.3-7.1c0,0,0,0,0,0c8.3,0,13.6,3.5,16.2,5.9l10.6-15.8c-2.6-1.6-12.1-6.7-26-6.7
					c0,0,0,0,0,0c-17.5,0-30.6,9-33.5,23c-2.8,13.7,3.5,24,18.7,30.4c0.6,0.3,1.2,0.5,1.8,0.8c6,2.5,12.8,5.3,11.3,11.9
					c-1.1,4.9-6,7.7-13.7,7.7c0,0,0,0,0,0c-8.1,0-16-4.5-19.5-7.9L46.4,146.2z"/>
			</g>
			<g>
				<path class="st4" d="M224.5,109.1c-4.4,28.9-27.9,46.5-56,46.5c-29.8,0-44.3-22.3-41.2-46.5c3.2-25.6,26.2-46.5,56-46.5
					C214.5,62.7,227.9,87.1,224.5,109.1z M150.6,109.1c-2.7,15,6.4,25.5,20.5,25.5c13.4,0,25.6-9.5,28.6-25.5
					c2.4-13-4.6-25.3-20.9-25.3C163.7,83.7,153,96,150.6,109.1z"/>
				<path class="st5" d="M168.5,156.1c-13.5,0-24.7-4.6-32.3-13.2c-7.6-8.6-11-21-9.4-33.9c1.6-12.7,8.1-24.5,18.2-33.2
					c10.4-8.9,24-13.8,38.3-13.8c0,0,0,0,0,0c13.8,0,25.1,4.7,32.8,13.7c7.6,8.9,10.9,21,9,33.4l0,0
					C220.7,137.3,198,156.1,168.5,156.1C168.5,156.1,168.5,156.1,168.5,156.1z M183.2,63.2C183.2,63.2,183.2,63.2,183.2,63.2
					c-14,0-27.4,4.8-37.6,13.5c-10,8.5-16.3,20-17.9,32.5c-1.6,12.6,1.8,24.7,9.2,33.1c7.4,8.4,18.3,12.8,31.6,12.8c0,0,0,0,0,0
					c28.9,0,51.2-18.5,55.5-46l0.5,0.1l-0.5-0.1c1.9-12.1-1.3-23.9-8.7-32.6C207.8,67.8,196.7,63.2,183.2,63.2z M171.1,135.1
					c-7,0-12.9-2.5-16.8-7.2c-4-4.8-5.5-11.5-4.2-18.9l0,0c2.3-12.8,12.9-25.8,28.7-25.8c0,0,0.1,0,0.1,0c7.4,0,13.3,2.6,17.2,7.3
					c3.9,4.8,5.5,11.6,4.1,18.7c-2.9,15.4-14.6,25.8-29.1,25.9C171.1,135.1,171.1,135.1,171.1,135.1z M151.1,109.2
					c-1.3,7.1,0.1,13.5,3.9,18c3.7,4.4,9.4,6.8,16,6.8c0,0,0.1,0,0.1,0c14-0.1,25.3-10.1,28.1-25c1.3-6.8-0.2-13.3-3.9-17.8
					c-3.7-4.5-9.4-6.9-16.4-6.9c0,0-0.1,0-0.1,0C163.6,84.3,153.4,96.8,151.1,109.2L151.1,109.2z"/>
			</g>
			<g>
				<path class="st4" d="M451.6,92.8c-3.5-3.9-9.4-7.9-18.9-7.8c-13,0-25.3,11.1-27.4,24.5c-2.2,13.4,4.7,24,20.1,24
					c9.3,0,16.6-3.9,21-7.6l-4.2,26.4c-4.5,1.1-11.4,3.4-20.8,3.4c-33,0-44-24.7-40.9-46.3c3.8-26.4,25.1-46.6,53.6-46.6
					c9.6,0,17.3,2.5,21.7,4L451.6,92.8z"/>
				<path class="st5" d="M421.3,156.1c-13.9,0-25.2-4.5-32.6-13c-7.5-8.6-10.7-21-8.8-33.9c1.9-13.1,8.2-25,17.7-33.5
					c9.9-8.9,22.5-13.6,36.4-13.6c0,0,0,0,0,0c9.1,0,16.4,2.2,21.8,4.1l0.4,0.1L452,93.9l-0.7-0.8c-3.1-3.5-8.9-7.7-18.5-7.7
					c0,0,0,0,0,0c-12.7,0-24.8,10.8-26.9,24c-1.1,6.9,0.2,13,3.8,17.2c3.5,4.1,8.9,6.2,15.8,6.2c0,0,0,0,0,0
					c10.3,0,17.3-4.7,20.7-7.4l1.1-0.9l-4.5,28.1l-0.3,0.1c-0.6,0.2-1.3,0.3-2,0.5C435.7,154.5,429.5,156.1,421.3,156.1
					C421.4,156.1,421.4,156.1,421.3,156.1z M434.1,63.2C434.1,63.2,434.1,63.2,434.1,63.2c-13.6,0-26,4.6-35.7,13.3
					c-9.3,8.3-15.5,20-17.4,32.9c-1.8,12.7,1.3,24.7,8.5,33.1c7.2,8.3,18.1,12.6,31.8,12.6c0,0,0,0,0.1,0c8,0,14.1-1.6,18.6-2.8
					c0.6-0.2,1.2-0.3,1.7-0.5l4-24.7c-3.8,2.9-10.7,6.8-20.3,6.8c0,0,0,0,0,0c-7.1,0-12.9-2.3-16.6-6.6c-3.8-4.4-5.2-10.8-4-18
					c2.2-13.7,14.8-24.9,27.9-24.9c0,0,0,0,0,0c9.3,0,15.1,3.8,18.5,7.2l3.9-24.6C449.9,65.2,442.8,63.2,434.1,63.2z"/>
			</g>
		</g>
	</g>
</g>
</svg>
